# xmcd CD database file
#
# Track frame offsets:
#	150
#	15912
#	36689
#	56244
#	74216
#	92507
#	100660
#	110420
#	121247
#	131593
#	156543
#	163741
#	172467
#	190165
#	209389
#	228325
#	239049
#	257084
#	268976
#	285652
#	297703
#	313862
#	330398
#	342698
#
# Disc length: 4717 seconds
#
# Revision: 1
# Processed by: cddbd v1.5.2PL0 Copyright (c) Steve Scherf et al.
# Submitted via: CDex 1.51
#
DISCID=8a126b18
DTITLE=Various Artist - ZM-Xmas-SH-CD-1
DYEAR=1900
DGENRE=Blues
TTITLE0=Pretenders The - 2000 miles
TTITLE1=Chris De Burgh - A Spaceman Came Traveling
TTITLE2=David Essex - A Winters Tale
TTITLE3=Mariah Carey - All I Want For Christmas Is You
TTITLE4=Gary Glitter - Another Rock And Roll Christmas
TTITLE5=Traditional - Auld Lang Syne
TTITLE6=Traditional - Away In A Manger
TTITLE7=Elvis Presley - Blue Christmas
TTITLE8=Dickie Valentine - Christmas Alphabet
TTITLE9=Waitresses The - Christmas Wrapping
TTITLE10=Traditional - Deck The Halls
TTITLE11=Traditional - Ding Dong Merrily On High
TTITLE12=Band Aid - Do They Know It's Christmas
TTITLE13=Chris Rea - Driving Home For Christmas
TTITLE14=Pogues The Ft Kirsty MacColl - Fairytale Of New York
TTITLE15=Ronettes The Frosty The Snowman
TTITLE16=Traditional - God Rest Ye Merry Gentlemen
TTITLE17=Traditional - Good King Wenceslas
TTITLE18=John Lennon - Happy Xmas (war is over)
TTITLE19=Traditional - Hark The Herald Angels Sing
TTITLE20=ShowaddyWaddy - Hey Mister Christmas
TTITLE21=Greg Lake - I Believe In Father Christmas
TTITLE22=Ronettes The - I Saw Mommy Kissing Santa Claus
TTITLE23=Traditional - I Saw Three Ships
EXTD=
EXTT0=
EXTT1=
EXTT2=
EXTT3=
EXTT4=
EXTT5=
EXTT6=
EXTT7=
EXTT8=
EXTT9=
EXTT10=
EXTT11=
EXTT12=
EXTT13=
EXTT14=
EXTT15=
EXTT16=
EXTT17=
EXTT18=
EXTT19=
EXTT20=
EXTT21=
EXTT22=
EXTT23=
PLAYORDER=
